<svg xmlns="http://www.w3.org/2000/svg" width="514.851" height="269.845" viewBox="0 0 514.851 269.845">
  <g id="Component_8_1" data-name="Component 8 – 1" transform="translate(0.5 0.5)">
    <path id="OT" d="M-1778.751,340.629q0-1.339,1.674-1.841t9.709-1.841q16.4-5.022,35.154-25.445-37.163-9.71-37.163-52.229a103.133,103.133,0,0,1,3.683-26.784,52.893,52.893,0,0,1-6.7-25.445q0-23.1,19.418-43.524,35.489-36.493,92.74-36.493a87.933,87.933,0,0,1,13.057,1,379.989,379.989,0,0,0,3.348-51.559q0-2.344,2.009-2.344t2.009,17.744a213.112,213.112,0,0,1-3.348,36.828,69.3,69.3,0,0,1,40.176,22.1q15.4,17.744,15.4,42.52,0,46.538-39.841,84.37-38.837,35.824-87.048,35.824a85.84,85.84,0,0,1-13.392-1q-27.119,30.467-47.542,30.467Q-1778.751,342.973-1778.751,340.629Zm58.925-37.832q43.525-.335,81.357-35.489,39.172-35.489,39.172-78.343,0-21.093-12.053-36.159-12.387-15.066-32.81-19.419-1.259,6.769-2.836,13.627,5.591-.17,5.708,2.06.037.708-7.793,20.645t-8.725,20.93l-3.415,3.568q-1.105,2.989-2.266,5.993,6.437-2.34,33.173-13.368a21.791,21.791,0,0,1,2.926-.627q.59-.031.615.441.208,3.962-38.1,17.1-3.838,9.687-8.247,19.53-3.01,6.719-6.122,13.152a69.258,69.258,0,0,0-2.891,22.946q.408,7.789,5.6,7.517,6.373-.334,16.289-9.847l10.139-9.762a.627.627,0,0,1,.745.671,5.443,5.443,0,0,1-.6,2.161q-3.48,5.863-12.084,13.3t-13.8,7.705q-11.8.619-12.556-13.779-.074-1.4-.057-2.9A340.285,340.285,0,0,1-1719.826,302.8Zm-45.2-43.524q0,41.18,40.846,43.19a321.116,321.116,0,0,0,36.371-56.107,114.089,114.089,0,0,1,3.257-15.014,16.362,16.362,0,0,0-9.948-9.183q-2.174-.832-6.509-2.262t-6.993-2.474q-2.659-1.044-2.85-4.7t3.076-4.539l6.373-.334a131.945,131.945,0,0,0,26.051-4.205l20-51.935a6.178,6.178,0,0,1,4.028-3.991q1.757-7.7,3.146-15.331a79.649,79.649,0,0,0-12.053-.67,116.808,116.808,0,0,0-56.246,14.062q-26.115,14.062-38.5,40.176a70.989,70.989,0,0,0-7.7,32.141,27.716,27.716,0,0,0,.335,5.022q11.049-28.458,39.172-51.726t56.582-23.269q4.018,0,4.017,2.177t-4.352,2.176q-23.1,0-54.238,30.467-27.454,27.788-37.833,52.229,2.679,5.022,9.375,8.37t6.7,4.017q0,2.344-3.013,2.344-7.031,0-14.731-10.044Q-1765.024,250.567-1765.024,259.272Zm64.639-45.563q12.608,5.73,16.606,14.277,2.013-6.733,6.986-20.247Q-1689.851,211.5-1700.385,213.709Z" transform="translate(1778.751 -74.128)" fill="#f8df54" stroke="rgba(0,0,0,0)" stroke-width="1"/>
    <path id="Path_36" data-name="Path 36" d="M10.96,2A5.49,5.49,0,0,1,6.92.36,5.3,5.3,0,0,1,5.28-3.52a6.83,6.83,0,0,1,.84-3.36A6.571,6.571,0,0,1,8.44-9.32a6.456,6.456,0,0,1,3.48-.92A5.526,5.526,0,0,1,16-8.64a5.331,5.331,0,0,1,1.6,3.92,6.436,6.436,0,0,1-.88,3.28,7.117,7.117,0,0,1-2.4,2.48A6.165,6.165,0,0,1,10.96,2ZM43.44,2a12.826,12.826,0,0,1-7.6-2.32,15.216,15.216,0,0,1-5.12-6.56,24.757,24.757,0,0,1-1.84-9.92,27.989,27.989,0,0,1,2.36-11.48,28.807,28.807,0,0,1,6.52-9.28,30.332,30.332,0,0,1,9.76-6.2A32.225,32.225,0,0,1,59.6-46a38.771,38.771,0,0,1,7.52.64,6.526,6.526,0,0,1,.72,1.72,8.079,8.079,0,0,1,.24,2.04,38.476,38.476,0,0,0-12.2,1.8,27.369,27.369,0,0,0-9.24,5.08,22.218,22.218,0,0,0-5.88,7.76,23.659,23.659,0,0,0-2.04,9.92q0,5.44,2.24,8.48a7.391,7.391,0,0,0,6.32,3.04,11.151,11.151,0,0,0,5.76-1.72,19.13,19.13,0,0,0,5.36-5A28.865,28.865,0,0,0,62.48-20L61.76-9.12l-1.6-.64a23.524,23.524,0,0,1-7.24,8.68A16.094,16.094,0,0,1,43.44,2ZM65.68,2A4.581,4.581,0,0,1,61.92.44a7.406,7.406,0,0,1-1.28-4.76q0-1.44.36-4.64t1-7.6q.64-4.4,1.44-9.48t1.64-10.24q.84-5.16,1.68-9.88t1.48-8.4l-3.52-4a15.776,15.776,0,0,1,4.56-2.52A13.865,13.865,0,0,1,73.92-62a4.3,4.3,0,0,1,3.2,1,4.842,4.842,0,0,1,.96,3.4,30.613,30.613,0,0,1-.8,5.8q-.8,3.8-2,9T72.84-31.44Q71.6-25.28,70.8-18.6A113.262,113.262,0,0,0,70-5.12a9.04,9.04,0,0,0,.44,2.8A4.658,4.658,0,0,0,71.68-.24,9.531,9.531,0,0,1,69,1.4,8.766,8.766,0,0,1,65.68,2Zm41.28,0Q98.48,2,93.68-3.2t-4.8-14.32a33.416,33.416,0,0,1,2.16-12.2,28.788,28.788,0,0,1,6.08-9.64,28.03,28.03,0,0,1,9.2-6.36A28.749,28.749,0,0,1,117.84-48q6.32,0,9.88,3a10.43,10.43,0,0,1,3.56,8.44,13.187,13.187,0,0,1-4.08,9.72q-4.08,4.04-11.84,6.12a76.009,76.009,0,0,1-18.88,2.16l.96-4.48q11.92.08,18.52-3.56t6.6-10.2a6.138,6.138,0,0,0-1.64-4.48,5.92,5.92,0,0,0-4.44-1.68,12.617,12.617,0,0,0-6.8,2,19.253,19.253,0,0,0-5.64,5.56,29.243,29.243,0,0,0-3.84,8.28,35.282,35.282,0,0,0-1.4,10.08q0,6.32,2.4,10a7.456,7.456,0,0,0,6.56,3.68,11.475,11.475,0,0,0,8.48-3.28,12.919,12.919,0,0,0,3.6-8.72,8.669,8.669,0,0,1,4.76,1.12,4.06,4.06,0,0,1,1.72,3.68,9.049,9.049,0,0,1-2.56,6.08A18.524,18.524,0,0,1,116.84.2,25.69,25.69,0,0,1,106.96,2ZM156,2a37.586,37.586,0,0,1-9.04-.96,13.93,13.93,0,0,1-5.92-2.8,5.683,5.683,0,0,1-2.08-4.4,5.392,5.392,0,0,1,.96-3.04,7.5,7.5,0,0,1,2.72-2.4,15.458,15.458,0,0,0,5.44,6.12,13.523,13.523,0,0,0,7.36,2.12,21.832,21.832,0,0,0,6.64-.92,9.781,9.781,0,0,0,4.52-2.8,6.864,6.864,0,0,0,1.64-4.68,4.242,4.242,0,0,0-1.92-3.56,19.653,19.653,0,0,0-4.92-2.48q-3-1.08-6.36-2.2a41.112,41.112,0,0,1-6.36-2.72,15.342,15.342,0,0,1-4.92-4.04,9.592,9.592,0,0,1-1.92-6.12A11.34,11.34,0,0,1,143.56-39a15.421,15.421,0,0,1,4.92-4.8,25.23,25.23,0,0,1,7.6-3.12A40.6,40.6,0,0,1,165.76-48a25.441,25.441,0,0,1,10.52,1.88q4.12,1.88,4.12,4.92a5.322,5.322,0,0,1-1.96,4.48,7.919,7.919,0,0,1-5,1.52,7.468,7.468,0,0,1-5.2-1.96,12.212,12.212,0,0,1-3.28-5.56q-6.56.72-10.28,3.12t-3.72,5.68a4.012,4.012,0,0,0,1.92,3.36,20.778,20.778,0,0,0,4.88,2.44q2.96,1.08,6.36,2.24a41.584,41.584,0,0,1,6.36,2.76,15.473,15.473,0,0,1,4.88,4.04,9.592,9.592,0,0,1,1.92,6.12,12.3,12.3,0,0,1-1.44,5.84,14.164,14.164,0,0,1-4.2,4.76,21.254,21.254,0,0,1-6.72,3.2A31.716,31.716,0,0,1,156,2Zm41.76,0A5.541,5.541,0,0,1,193.68.64a5.91,5.91,0,0,1-1.36-4.32,36.658,36.658,0,0,1,.36-4.4q.36-2.8,1.16-7.12t2.12-10.6q1.32-6.28,3.24-14.84l-3.52-4a15.188,15.188,0,0,1,4.52-2.48,13.891,13.891,0,0,1,4.52-.88,4.863,4.863,0,0,1,3.36.96,4.571,4.571,0,0,1,1.04,3.44,17.292,17.292,0,0,1-.52,2.76q-.52,2.2-1.36,5.6t-1.76,7.44q-.92,4.04-1.76,8.28t-1.36,8.12a53.179,53.179,0,0,0-.52,7,7.894,7.894,0,0,0,.36,2.56,3.9,3.9,0,0,0,1.08,1.68A8.615,8.615,0,0,1,197.76,2Zm7.12-56.8a6.128,6.128,0,0,1-4.08-1.28,4.1,4.1,0,0,1-1.52-3.28,5.343,5.343,0,0,1,.88-2.96,6.443,6.443,0,0,1,2.48-2.2,7.98,7.98,0,0,1,3.76-.84,6.229,6.229,0,0,1,4.12,1.24A4.025,4.025,0,0,1,212-60.88a5.493,5.493,0,0,1-.92,3.08,6.333,6.333,0,0,1-2.52,2.2A8.122,8.122,0,0,1,204.88-54.8Zm22.88,73.6a19.269,19.269,0,0,1-9.32-1.96q-3.56-1.96-3.56-5a6.423,6.423,0,0,1,1.04-3.32,9.78,9.78,0,0,1,2.72-2.92,12.584,12.584,0,0,0,4.52,4.76,12.758,12.758,0,0,0,6.52,1.56,17.682,17.682,0,0,0,6.76-1.56,23.313,23.313,0,0,0,7.4-5.28A34.933,34.933,0,0,0,250.44-5a62.682,62.682,0,0,0,4.48-15.88A116.481,116.481,0,0,0,256-43.6a16.5,16.5,0,0,1,3-2.12,4.863,4.863,0,0,1,2.12-.52q3.36,0,3.36,3.04a144.014,144.014,0,0,1-1.2,18.8A87.734,87.734,0,0,1,259.4-7.44a51.382,51.382,0,0,1-6.96,13.72,31.122,31.122,0,0,1-10.4,9.2A29.492,29.492,0,0,1,227.76,18.8ZM233.68-.32a13.456,13.456,0,0,1-7.84-2.32,15.322,15.322,0,0,1-5.24-6.48,23.307,23.307,0,0,1-1.88-9.68,31.793,31.793,0,0,1,2.04-11.48,26.54,26.54,0,0,1,5.96-9.28,27.651,27.651,0,0,1,9.52-6.2A33.79,33.79,0,0,1,248.88-48a40.358,40.358,0,0,1,7.52.64,6.526,6.526,0,0,1,.72,1.72,8.079,8.079,0,0,1,.24,2.04,37.187,37.187,0,0,0-11.96,1.8,26.971,26.971,0,0,0-9.08,5.04,21.92,21.92,0,0,0-5.76,7.68,23.392,23.392,0,0,0-2,9.72q0,5.84,2.36,9.08a7.7,7.7,0,0,0,6.6,3.24,11.686,11.686,0,0,0,4.36-1,15.473,15.473,0,0,0,4.88-3.4,24.358,24.358,0,0,0,4.52-6.6,43.263,43.263,0,0,0,3.36-10.48,76.639,76.639,0,0,0,1.28-15.08l.4,31.84H251.2a21.634,21.634,0,0,1-7.68,8.44A18.351,18.351,0,0,1,233.68-.32ZM282.64,2A5.541,5.541,0,0,1,278.56.64a5.91,5.91,0,0,1-1.36-4.32,43.652,43.652,0,0,1,.56-5.6q.56-3.84,1.56-8.96T281.56-29q1.24-5.64,2.6-11l-3.6-4a15.1,15.1,0,0,1,4.6-2.76,13.053,13.053,0,0,1,4.6-1,4.684,4.684,0,0,1,3.36.96,4.823,4.823,0,0,1,.96,3.44,18.691,18.691,0,0,1-.68,4.68,27,27,0,0,1-1.8,4.92l.8.4a32.92,32.92,0,0,1,9.24-10.88A19.628,19.628,0,0,1,313.36-48q5.2,0,7.72,2.6t2.52,8.04a37.369,37.369,0,0,1-.84,7.68q-.84,4-1.96,8.24t-1.96,8.52A44.149,44.149,0,0,0,318-4.4a6.612,6.612,0,0,0,1.04,4.16A7.415,7.415,0,0,1,313.92,2,5.4,5.4,0,0,1,309.88.64a6.026,6.026,0,0,1-1.32-4.32,42.52,42.52,0,0,1,.76-7.48q.76-4.2,1.76-8.56T312.84-28a36.131,36.131,0,0,0,.76-6.72,7.92,7.92,0,0,0-1.24-4.88,4.324,4.324,0,0,0-3.64-1.6,12.333,12.333,0,0,0-6.76,2.08,23.942,23.942,0,0,0-6,5.68,40.351,40.351,0,0,0-4.84,8.32,52.853,52.853,0,0,0-3.24,10A49.81,49.81,0,0,0,286.72-4.4a6.812,6.812,0,0,0,.96,4.16A7.335,7.335,0,0,1,282.64,2Z" transform="translate(190.751 216.872)" fill="#f8df54"/>
  </g>
</svg>
